# xmcd
#
# Track frame offsets:
#	150
#	16899
#	23793
#	43330
#	62855
#	79441
#	99448
#	122245
#	142640
#	156673
#	170571
#	188603
#	209378
#	222449
#	242050
#
# Disc length: 3490 seconds
#
# Revision: 0
# Processed by: cddbd v1.5.2PL0 Copyright (c) Steve Scherf et al.
# Submitted via: dBpowerAMP V4.0
#
DISCID=d70da00f
DTITLE=trick - trick daddy
DYEAR=1900
DGENRE=
TTITLE0=k
TTITLE1=k
TTITLE2=k
TTITLE3=k
TTITLE4=k
TTITLE5=k
TTITLE6=k
TTITLE7=k
TTITLE8=k
TTITLE9=k
TTITLE10=k
TTITLE11=k
TTITLE12=k
TTITLE13=k
TTITLE14=k
EXTD=
EXTT0=
EXTT1=
EXTT2=
EXTT3=
EXTT4=
EXTT5=
EXTT6=
EXTT7=
EXTT8=
EXTT9=
EXTT10=
EXTT11=
EXTT12=
EXTT13=
EXTT14=
PLAYORDER=
